<svg width="1245" height="436" viewBox="0 0 1245 436" fill="none" xmlns="http://www.w3.org/2000/svg">
<path d="M943.74 369.89L1015.41 51.8748L1132.26 274.66L943.74 369.89Z" stroke="black" stroke-width="30"/>
<path d="M999.556 405.892L1083.91 55.9988L1219.48 300.675L999.556 405.892Z" stroke="black" stroke-width="30"/>
<path d="M1068.8 183.467L1112.3 268.467L1038.8 305.467L1068.8 183.467Z" fill="#EDC770"/>
<path d="M47.16 145.535C43.72 145.535 40.64 146.215 37.92 147.575C35.28 148.935 33.04 150.895 31.2 153.455C29.36 155.935 27.96 158.975 27 162.575C26.12 166.175 25.68 170.215 25.68 174.695C25.68 180.775 26.4 185.975 27.84 190.295C29.36 194.535 31.72 197.775 34.92 200.015C38.12 202.255 42.2 203.375 47.16 203.375C50.68 203.375 54.16 202.975 57.6 202.175C61.12 201.375 64.92 200.255 69 198.815V214.055C65.24 215.575 61.52 216.695 57.84 217.415C54.16 218.135 50.04 218.495 45.48 218.495C36.68 218.495 29.4 216.695 23.64 213.095C17.96 209.415 13.76 204.295 11.04 197.735C8.32 191.095 6.96 183.375 6.96 174.575C6.96 168.095 7.84 162.175 9.6 156.815C11.36 151.375 13.92 146.695 17.28 142.775C20.72 138.855 24.92 135.815 29.88 133.655C34.92 131.495 40.68 130.415 47.16 130.415C51.4 130.415 55.64 130.975 59.88 132.095C64.2 133.135 68.32 134.575 72.24 136.415L66.36 151.175C63.16 149.655 59.92 148.335 56.64 147.215C53.44 146.095 50.28 145.535 47.16 145.535ZM112.646 150.455C121.446 150.455 128.166 152.375 132.806 156.215C137.526 159.975 139.886 165.775 139.886 173.615V217.295H127.406L123.926 208.415H123.446C121.606 210.735 119.686 212.655 117.686 214.175C115.766 215.695 113.526 216.775 110.966 217.415C108.486 218.135 105.406 218.495 101.726 218.495C97.8863 218.495 94.4063 217.775 91.2863 216.335C88.2463 214.815 85.8463 212.535 84.0863 209.495C82.3263 206.375 81.4463 202.455 81.4463 197.735C81.4463 190.775 83.8863 185.655 88.7663 182.375C93.6463 179.015 100.966 177.175 110.726 176.855L122.126 176.495V173.615C122.126 170.175 121.206 167.655 119.366 166.055C117.606 164.455 115.126 163.655 111.926 163.655C108.726 163.655 105.606 164.135 102.566 165.095C99.5263 165.975 96.4863 167.095 93.4463 168.455L87.5663 156.335C91.0863 154.495 94.9663 153.055 99.2063 152.015C103.526 150.975 108.006 150.455 112.646 150.455ZM115.166 187.175C109.406 187.335 105.406 188.375 103.166 190.295C100.926 192.215 99.8063 194.735 99.8063 197.855C99.8063 200.575 100.606 202.535 102.206 203.735C103.806 204.855 105.886 205.415 108.446 205.415C112.286 205.415 115.526 204.295 118.166 202.055C120.806 199.735 122.126 196.495 122.126 192.335V186.935L115.166 187.175ZM235.108 150.575C242.548 150.575 248.148 152.495 251.908 156.335C255.748 160.095 257.668 166.175 257.668 174.575V217.295H239.788V179.015C239.788 174.295 238.988 170.775 237.388 168.455C235.788 166.055 233.308 164.855 229.948 164.855C225.228 164.855 221.868 166.535 219.868 169.895C217.868 173.255 216.868 178.095 216.868 184.415V217.295H198.988V179.015C198.988 175.895 198.628 173.295 197.908 171.215C197.188 169.135 196.108 167.575 194.668 166.535C193.228 165.415 191.388 164.855 189.148 164.855C185.868 164.855 183.268 165.695 181.348 167.375C179.428 169.055 178.068 171.495 177.268 174.695C176.468 177.895 176.068 181.815 176.068 186.455V217.295H158.188V151.775H171.868L174.268 160.175H175.228C176.588 157.935 178.268 156.135 180.268 154.775C182.268 153.335 184.468 152.295 186.868 151.655C189.348 150.935 191.828 150.575 194.308 150.575C199.108 150.575 203.188 151.375 206.548 152.975C209.908 154.495 212.468 156.895 214.228 160.175H215.788C217.788 156.815 220.548 154.375 224.068 152.855C227.668 151.335 231.348 150.575 235.108 150.575ZM293.959 151.775V217.295H276.079V151.775H293.959ZM285.079 126.095C287.719 126.095 289.999 126.735 291.919 128.015C293.839 129.215 294.799 131.495 294.799 134.855C294.799 138.135 293.839 140.415 291.919 141.695C289.999 142.975 287.719 143.615 285.079 143.615C282.359 143.615 280.039 142.975 278.119 141.695C276.279 140.415 275.359 138.135 275.359 134.855C275.359 131.495 276.279 129.215 278.119 128.015C280.039 126.735 282.359 126.095 285.079 126.095ZM330.521 217.295H312.641V126.095H330.521V217.295ZM376.084 150.455C384.884 150.455 391.604 152.375 396.244 156.215C400.964 159.975 403.324 165.775 403.324 173.615V217.295H390.844L387.364 208.415H386.884C385.044 210.735 383.124 212.655 381.124 214.175C379.204 215.695 376.964 216.775 374.404 217.415C371.924 218.135 368.844 218.495 365.164 218.495C361.324 218.495 357.844 217.775 354.724 216.335C351.684 214.815 349.284 212.535 347.524 209.495C345.764 206.375 344.884 202.455 344.884 197.735C344.884 190.775 347.324 185.655 352.204 182.375C357.084 179.015 364.404 177.175 374.164 176.855L385.564 176.495V173.615C385.564 170.175 384.644 167.655 382.804 166.055C381.044 164.455 378.564 163.655 375.364 163.655C372.164 163.655 369.044 164.135 366.004 165.095C362.964 165.975 359.924 167.095 356.884 168.455L351.004 156.335C354.524 154.495 358.404 153.055 362.644 152.015C366.964 150.975 371.444 150.455 376.084 150.455ZM378.604 187.175C372.844 187.335 368.844 188.375 366.604 190.295C364.364 192.215 363.244 194.735 363.244 197.855C363.244 200.575 364.044 202.535 365.644 203.735C367.244 204.855 369.324 205.415 371.884 205.415C375.724 205.415 378.964 204.295 381.604 202.055C384.244 199.735 385.564 196.495 385.564 192.335V186.935L378.604 187.175ZM503.279 217.295L497.039 196.895H465.839L459.599 217.295H440.039L470.279 131.255H492.479L522.839 217.295H503.279ZM486.479 161.735C486.079 160.375 485.559 158.655 484.919 156.575C484.279 154.495 483.639 152.375 482.999 150.215C482.359 148.055 481.839 146.175 481.439 144.575C481.039 146.175 480.479 148.175 479.759 150.575C479.119 152.895 478.479 155.135 477.839 157.295C477.279 159.375 476.839 160.855 476.519 161.735L470.399 181.655H492.719L486.479 161.735ZM609.171 150.575C616.611 150.575 622.211 152.495 625.971 156.335C629.811 160.095 631.731 166.175 631.731 174.575V217.295H613.851V179.015C613.851 174.295 613.051 170.775 611.451 168.455C609.851 166.055 607.371 164.855 604.011 164.855C599.291 164.855 595.931 166.535 593.931 169.895C591.931 173.255 590.931 178.095 590.931 184.415V217.295H573.051V179.015C573.051 175.895 572.691 173.295 571.971 171.215C571.251 169.135 570.171 167.575 568.731 166.535C567.291 165.415 565.451 164.855 563.211 164.855C559.931 164.855 557.331 165.695 555.411 167.375C553.491 169.055 552.131 171.495 551.331 174.695C550.531 177.895 550.131 181.815 550.131 186.455V217.295H532.251V151.775H545.931L548.331 160.175H549.291C550.651 157.935 552.331 156.135 554.331 154.775C556.331 153.335 558.531 152.295 560.931 151.655C563.411 150.935 565.891 150.575 568.371 150.575C573.171 150.575 577.251 151.375 580.611 152.975C583.971 154.495 586.531 156.895 588.291 160.175H589.851C591.851 156.815 594.611 154.375 598.131 152.855C601.731 151.335 605.411 150.575 609.171 150.575ZM709.661 184.415C709.661 189.855 708.901 194.695 707.381 198.935C705.941 203.175 703.821 206.775 701.021 209.735C698.301 212.615 694.981 214.815 691.061 216.335C687.141 217.775 682.701 218.495 677.741 218.495C673.181 218.495 668.941 217.775 665.021 216.335C661.181 214.815 657.861 212.615 655.061 209.735C652.261 206.775 650.061 203.175 648.461 198.935C646.941 194.695 646.181 189.855 646.181 184.415C646.181 177.135 647.461 171.015 650.021 166.055C652.581 161.015 656.261 157.175 661.061 154.535C665.861 151.895 671.541 150.575 678.101 150.575C684.261 150.575 689.701 151.895 694.421 154.535C699.141 157.175 702.861 161.015 705.581 166.055C708.301 171.015 709.661 177.135 709.661 184.415ZM664.421 184.415C664.421 188.735 664.861 192.375 665.741 195.335C666.701 198.215 668.181 200.415 670.181 201.935C672.181 203.375 674.781 204.095 677.981 204.095C681.181 204.095 683.741 203.375 685.661 201.935C687.661 200.415 689.101 198.215 689.981 195.335C690.941 192.375 691.421 188.735 691.421 184.415C691.421 180.095 690.941 176.495 689.981 173.615C689.101 170.735 687.661 168.575 685.661 167.135C683.661 165.695 681.061 164.975 677.861 164.975C673.141 164.975 669.701 166.615 667.541 169.895C665.461 173.095 664.421 177.935 664.421 184.415ZM761.038 150.575C761.918 150.575 762.958 150.615 764.158 150.695C765.358 150.775 766.318 150.895 767.038 151.055L765.718 167.855C765.158 167.695 764.318 167.575 763.198 167.495C762.158 167.335 761.238 167.255 760.438 167.255C758.118 167.255 755.878 167.575 753.718 168.215C751.558 168.775 749.598 169.695 747.838 170.975C746.158 172.255 744.798 173.975 743.758 176.135C742.798 178.215 742.318 180.815 742.318 183.935V217.295H724.438V151.775H737.998L740.638 162.815H741.478C742.758 160.575 744.358 158.535 746.278 156.695C748.198 154.855 750.398 153.375 752.878 152.255C755.438 151.135 758.158 150.575 761.038 150.575ZM796.81 151.775V217.295H778.93V151.775H796.81ZM787.93 126.095C790.57 126.095 792.85 126.735 794.77 128.015C796.69 129.215 797.65 131.495 797.65 134.855C797.65 138.135 796.69 140.415 794.77 141.695C792.85 142.975 790.57 143.615 787.93 143.615C785.21 143.615 782.89 142.975 780.97 141.695C779.13 140.415 778.21 138.135 778.21 134.855C778.21 131.495 779.13 129.215 780.97 128.015C782.89 126.735 785.21 126.095 787.93 126.095ZM892.413 150.575C899.853 150.575 905.453 152.495 909.213 156.335C913.053 160.095 914.973 166.175 914.973 174.575V217.295H897.093V179.015C897.093 174.295 896.293 170.775 894.693 168.455C893.093 166.055 890.613 164.855 887.253 164.855C882.533 164.855 879.173 166.535 877.173 169.895C875.173 173.255 874.173 178.095 874.173 184.415V217.295H856.293V179.015C856.293 175.895 855.933 173.295 855.213 171.215C854.493 169.135 853.413 167.575 851.973 166.535C850.533 165.415 848.693 164.855 846.453 164.855C843.173 164.855 840.573 165.695 838.653 167.375C836.733 169.055 835.373 171.495 834.573 174.695C833.773 177.895 833.373 181.815 833.373 186.455V217.295H815.493V151.775H829.173L831.573 160.175H832.533C833.893 157.935 835.573 156.135 837.573 154.775C839.573 153.335 841.773 152.295 844.173 151.655C846.653 150.935 849.133 150.575 851.613 150.575C856.413 150.575 860.493 151.375 863.853 152.975C867.213 154.495 869.773 156.895 871.533 160.175H873.093C875.093 156.815 877.853 154.375 881.373 152.855C884.973 151.335 888.653 150.575 892.413 150.575Z" fill="black"/>
<path d="M591.535 309.295H581.85V262.885H608.435V270.945H591.535V282.905H607.265V290.965H591.535V309.295ZM648.984 291.485C648.984 294.431 648.572 297.053 647.749 299.35C646.969 301.646 645.82 303.596 644.304 305.2C642.83 306.76 641.032 307.951 638.909 308.775C636.785 309.555 634.38 309.945 631.694 309.945C629.224 309.945 626.927 309.555 624.804 308.775C622.724 307.951 620.925 306.76 619.409 305.2C617.892 303.596 616.7 301.646 615.834 299.35C615.01 297.053 614.599 294.431 614.599 291.485C614.599 287.541 615.292 284.226 616.679 281.54C618.065 278.81 620.059 276.73 622.659 275.3C625.259 273.87 628.335 273.155 631.889 273.155C635.225 273.155 638.172 273.87 640.729 275.3C643.285 276.73 645.3 278.81 646.774 281.54C648.247 284.226 648.984 287.541 648.984 291.485ZM624.479 291.485C624.479 293.825 624.717 295.796 625.194 297.4C625.714 298.96 626.515 300.151 627.599 300.975C628.682 301.755 630.09 302.145 631.824 302.145C633.557 302.145 634.944 301.755 635.984 300.975C637.067 300.151 637.847 298.96 638.324 297.4C638.844 295.796 639.104 293.825 639.104 291.485C639.104 289.145 638.844 287.195 638.324 285.635C637.847 284.075 637.067 282.905 635.984 282.125C634.9 281.345 633.492 280.955 631.759 280.955C629.202 280.955 627.339 281.843 626.169 283.62C625.042 285.353 624.479 287.975 624.479 291.485ZM671.938 302.21C673.021 302.21 674.061 302.101 675.058 301.885C676.055 301.668 677.051 301.408 678.048 301.105V308.32C677.008 308.753 675.708 309.121 674.148 309.425C672.631 309.771 670.963 309.945 669.143 309.945C667.02 309.945 665.113 309.598 663.423 308.905C661.776 308.211 660.455 307.02 659.458 305.33C658.505 303.596 658.028 301.213 658.028 298.18V281.085H653.413V276.99L658.743 273.74L661.538 266.265H667.713V273.805H677.658V281.085H667.713V298.18C667.713 299.523 668.103 300.541 668.883 301.235C669.663 301.885 670.681 302.21 671.938 302.21ZM717.412 291.485C717.412 294.431 717 297.053 716.177 299.35C715.397 301.646 714.248 303.596 712.732 305.2C711.258 306.76 709.46 307.951 707.337 308.775C705.213 309.555 702.808 309.945 700.122 309.945C697.652 309.945 695.355 309.555 693.232 308.775C691.152 307.951 689.353 306.76 687.837 305.2C686.32 303.596 685.128 301.646 684.262 299.35C683.438 297.053 683.027 294.431 683.027 291.485C683.027 287.541 683.72 284.226 685.107 281.54C686.493 278.81 688.487 276.73 691.087 275.3C693.687 273.87 696.763 273.155 700.317 273.155C703.653 273.155 706.6 273.87 709.157 275.3C711.713 276.73 713.728 278.81 715.202 281.54C716.675 284.226 717.412 287.541 717.412 291.485ZM692.907 291.485C692.907 293.825 693.145 295.796 693.622 297.4C694.142 298.96 694.943 300.151 696.027 300.975C697.11 301.755 698.518 302.145 700.252 302.145C701.985 302.145 703.372 301.755 704.412 300.975C705.495 300.151 706.275 298.96 706.752 297.4C707.272 295.796 707.532 293.825 707.532 291.485C707.532 289.145 707.272 287.195 706.752 285.635C706.275 284.075 705.495 282.905 704.412 282.125C703.328 281.345 701.92 280.955 700.187 280.955C697.63 280.955 695.767 281.843 694.597 283.62C693.47 285.353 692.907 287.975 692.907 291.485ZM736.921 273.155C739.087 273.155 741.037 273.588 742.771 274.455C744.504 275.321 745.977 276.621 747.191 278.355H747.451L748.231 273.805H756.421V309.36C756.421 312.74 755.749 315.578 754.406 317.875C753.106 320.171 751.134 321.905 748.491 323.075C745.847 324.288 742.576 324.895 738.676 324.895C736.162 324.895 733.822 324.743 731.656 324.44C729.532 324.136 727.452 323.595 725.416 322.815V315.08C726.889 315.686 728.362 316.185 729.836 316.575C731.352 317.008 732.891 317.311 734.451 317.485C736.054 317.701 737.657 317.81 739.261 317.81C741.774 317.81 743.637 317.138 744.851 315.795C746.107 314.451 746.736 312.436 746.736 309.75V309.035C746.736 308.298 746.757 307.54 746.801 306.76C746.887 305.98 746.952 305.286 746.996 304.68H746.736C745.522 306.543 744.071 307.886 742.381 308.71C740.691 309.533 738.784 309.945 736.661 309.945C732.457 309.945 729.164 308.341 726.781 305.135C724.441 301.885 723.271 297.378 723.271 291.615C723.271 287.715 723.812 284.4 724.896 281.67C725.979 278.896 727.539 276.795 729.576 275.365C731.656 273.891 734.104 273.155 736.921 273.155ZM739.976 281.02C738.459 281.02 737.181 281.431 736.141 282.255C735.144 283.035 734.386 284.226 733.866 285.83C733.389 287.39 733.151 289.361 733.151 291.745C733.151 295.298 733.714 297.963 734.841 299.74C735.967 301.473 737.722 302.34 740.106 302.34C741.362 302.34 742.446 302.188 743.356 301.885C744.266 301.538 745.002 300.996 745.566 300.26C746.172 299.48 746.627 298.483 746.931 297.27C747.234 296.056 747.386 294.583 747.386 292.85V291.68C747.386 289.123 747.126 287.065 746.606 285.505C746.086 283.945 745.284 282.818 744.201 282.125C743.117 281.388 741.709 281.02 739.976 281.02ZM786.374 273.155C786.85 273.155 787.414 273.176 788.064 273.22C788.714 273.263 789.234 273.328 789.624 273.415L788.909 282.515C788.605 282.428 788.15 282.363 787.544 282.32C786.98 282.233 786.482 282.19 786.049 282.19C784.792 282.19 783.579 282.363 782.409 282.71C781.239 283.013 780.177 283.511 779.224 284.205C778.314 284.898 777.577 285.83 777.014 287C776.494 288.126 776.234 289.535 776.234 291.225V309.295H766.549V273.805H773.894L775.324 279.785H775.779C776.472 278.571 777.339 277.466 778.379 276.47C779.419 275.473 780.61 274.671 781.954 274.065C783.34 273.458 784.814 273.155 786.374 273.155ZM809.356 273.09C814.122 273.09 817.762 274.13 820.276 276.21C822.832 278.246 824.111 281.388 824.111 285.635V309.295H817.351L815.466 304.485H815.206C814.209 305.741 813.169 306.781 812.086 307.605C811.046 308.428 809.832 309.013 808.446 309.36C807.102 309.75 805.434 309.945 803.441 309.945C801.361 309.945 799.476 309.555 797.786 308.775C796.139 307.951 794.839 306.716 793.886 305.07C792.932 303.38 792.456 301.256 792.456 298.7C792.456 294.93 793.777 292.156 796.421 290.38C799.064 288.56 803.029 287.563 808.316 287.39L814.491 287.195V285.635C814.491 283.771 813.992 282.406 812.996 281.54C812.042 280.673 810.699 280.24 808.966 280.24C807.232 280.24 805.542 280.5 803.896 281.02C802.249 281.496 800.602 282.103 798.956 282.84L795.771 276.275C797.677 275.278 799.779 274.498 802.076 273.935C804.416 273.371 806.842 273.09 809.356 273.09ZM810.721 292.98C807.601 293.066 805.434 293.63 804.221 294.67C803.007 295.71 802.401 297.075 802.401 298.765C802.401 300.238 802.834 301.3 803.701 301.95C804.567 302.556 805.694 302.86 807.081 302.86C809.161 302.86 810.916 302.253 812.346 301.04C813.776 299.783 814.491 298.028 814.491 295.775V292.85L810.721 292.98ZM853.654 281.085H845.269V309.295H835.584V281.085H830.254V276.405L835.584 273.805V271.205C835.584 268.171 836.082 265.831 837.079 264.185C838.119 262.495 839.571 261.303 841.434 260.61C843.341 259.916 845.572 259.57 848.129 259.57C850.036 259.57 851.747 259.721 853.264 260.025C854.824 260.328 856.081 260.675 857.034 261.065L854.564 268.15C853.827 267.933 853.026 267.738 852.159 267.565C851.292 267.348 850.296 267.24 849.169 267.24C847.826 267.24 846.829 267.651 846.179 268.475C845.572 269.298 845.269 270.338 845.269 271.595V273.805H853.654V281.085ZM868.864 273.805V309.295H859.179V273.805H868.864ZM864.054 259.895C865.484 259.895 866.719 260.241 867.759 260.935C868.799 261.585 869.319 262.82 869.319 264.64C869.319 266.416 868.799 267.651 867.759 268.345C866.719 269.038 865.484 269.385 864.054 269.385C862.581 269.385 861.324 269.038 860.284 268.345C859.287 267.651 858.789 266.416 858.789 264.64C858.789 262.82 859.287 261.585 860.284 260.935C861.324 260.241 862.581 259.895 864.054 259.895ZM893.589 273.09C898.356 273.09 901.996 274.13 904.509 276.21C907.066 278.246 908.344 281.388 908.344 285.635V309.295H901.584L899.699 304.485H899.439C898.442 305.741 897.402 306.781 896.319 307.605C895.279 308.428 894.066 309.013 892.679 309.36C891.336 309.75 889.667 309.945 887.674 309.945C885.594 309.945 883.709 309.555 882.019 308.775C880.372 307.951 879.072 306.716 878.119 305.07C877.166 303.38 876.689 301.256 876.689 298.7C876.689 294.93 878.011 292.156 880.654 290.38C883.297 288.56 887.262 287.563 892.549 287.39L898.724 287.195V285.635C898.724 283.771 898.226 282.406 897.229 281.54C896.276 280.673 894.932 280.24 893.199 280.24C891.466 280.24 889.776 280.5 888.129 281.02C886.482 281.496 884.836 282.103 883.189 282.84L880.004 276.275C881.911 275.278 884.012 274.498 886.309 273.935C888.649 273.371 891.076 273.09 893.589 273.09ZM894.954 292.98C891.834 293.066 889.667 293.63 888.454 294.67C887.241 295.71 886.634 297.075 886.634 298.765C886.634 300.238 887.067 301.3 887.934 301.95C888.801 302.556 889.927 302.86 891.314 302.86C893.394 302.86 895.149 302.253 896.579 301.04C898.009 299.783 898.724 298.028 898.724 295.775V292.85L894.954 292.98Z" fill="black"/>
</svg>
