<svg width="683.52" height="243.70667" xmlns="http://www.w3.org/2000/svg">
 <defs>
  <clipPath clipPathUnits="userSpaceOnUse" id="clipPath26">
   <path d="m-171.562271,802.467224l841.89,0l0,-595.28l-841.89,0l0,595.28z" id="path24"/>
  </clipPath>
 </defs>
 <g>
  <title>background</title>
  <rect fill="none" id="canvas_background" height="245.70667" width="685.52" y="-1" x="-1"/>
 </g>
 <g>
  <title>Layer 1</title>
  <g id="g10" transform="matrix(1.3333333,0,0,-1.3333333,0,793.70667) ">
   <g id="g12">
    <path fill="#836446" fill-rule="nonzero" d="m170.194534,549.066832l32.323,0l0,-129.089l9.199,0l0,129.089l33.32,0l0,9.198l-74.842,0l0,-9.198z" id="path14"/>
   </g>
   <g id="g16">
    <path fill="#836446" fill-rule="nonzero" d="m276.690628,421.645918l-0.638,-1.668l10.369,0l45.161,119.522l33.352,-87.992l1.148,0.435l0,-0.198l-1.148,-0.434l11.808,-31.333l10.363,0l-55.523,144.65l-54.892,-142.982z" id="path18"/>
   </g>
   <g id="g20">
    <g id="g22" clip-path="url(#clipPath26)">
     <g id="g28">
      <path fill="#836446" fill-rule="nonzero" d="m455.032455,549.066832l6.303,0c10.718,0 20.002,-3.847 27.593,-11.434c7.587,-7.595 11.434,-16.879 11.434,-27.592c0,-10.713 -3.847,-19.995 -11.434,-27.59c-7.591,-7.588 -16.875,-11.435 -27.593,-11.435l-6.303,0l0,78.051zm41.303,-72.29c8.773,9.241 13.224,20.434 13.224,33.264c0,13.236 -4.756,24.703 -14.14,34.084c-9.372,9.383 -20.843,14.14 -34.084,14.14l-15.501,0l0,-138.287l9.198,0l0,40.593l37.701,-43.149l0.801,-0.91l7.222,6.151l-34.305,39.345c11.641,1.165 21.688,6.127 29.884,14.769" id="path30"/>
     </g>
     <g id="g32">
      <path fill="#836446" fill-rule="nonzero" d="m23.249222,523.680632l4.916,-15.141l15.914,0l-12.874,-9.357l4.92,-15.14l-12.876,9.368l-12.875,-9.368l4.908,15.14l-12.865,9.357l15.914,0l4.918,15.141z" id="path34"/>
     </g>
     <g id="g36">
      <path fill="#836446" fill-rule="nonzero" d="m150.787338,586.106413c-18.167,0.168 -32.172,-14.623 -42.017,-44.375c-7.468,-27.712 -15.023,-55.419 -22.66,-83.126c-10.529,-29.757 -25.634,-44.543 -45.324,-44.375l-2.039,8.654c17.993,0 31.912,14.792 41.761,44.375c7.468,27.369 14.936,54.74 22.409,82.114c10.351,29.578 25.374,44.283 45.069,44.119l2.801,-7.386z" id="path38"/>
     </g>
    </g>
   </g>
  </g>
 </g>
</svg>