<?xml version="1.0" encoding="utf-8"?>
<!-- Generator: Adobe Illustrator 24.0.2, SVG Export Plug-In . SVG Version: 6.00 Build 0)  -->
<svg version="1.1" id="Camada_1" xmlns="http://www.w3.org/2000/svg" xmlns:xlink="http://www.w3.org/1999/xlink" x="0px" y="0px"
	 viewBox="0 0 118.4 43.3" style="enable-background:new 0 0 118.4 43.3;" xml:space="preserve">
<style type="text/css">
	.st0{fill:url(#Caminho_3493_1_);}
	.st1{fill:#005A54;}
</style>
<g id="Grupo_1948" transform="translate(29.825)">
	
		<radialGradient id="Caminho_3493_1_" cx="-914.0894" cy="548.1345" r="0.3489" gradientTransform="matrix(56.966 0 0 -56.966 52068.4141 31244.0645)" gradientUnits="userSpaceOnUse">
		<stop  offset="0.4" style="stop-color:#CEE1E0"/>
		<stop  offset="1" style="stop-color:#1B7B78"/>
	</radialGradient>
	<path id="Caminho_3493" class="st0" d="M7.4,23.1c0,9.5-7.7,17.3-17.3,17.3s-17.3-7.7-17.3-17.3c0-9.5,7.7-17.3,17.3-17.3
		C-0.4,5.8,7.4,13.6,7.4,23.1C7.4,23.1,7.4,23.1,7.4,23.1z"/>
	<path id="União_2" class="st1" d="M-17.8,38.5c5.2,0.8,10.6,0.8,15.8,0C-7,41-12.9,41-17.8,38.5z M-19.6,37.5
		c-1.1-0.8-2.1-1.6-3.1-2.6c2.3,0.4,4.6,0.7,6.9,0.9c0,0,0,0,0,0c0.9,0.1,0.8,0.8,1.7,0.8c2.1,0.1,3.8,0.1,5.8,0.1
		c0.3,0,0.6,0.1,0.8,0.3c0.2,0.2,0.5,0.3,0.7,0.3c2.1-0.1,4.3-0.3,6.4-0.7c0.7-0.1,1.5-1.4,2.3-1.5c0,0,0.4-0.1,0.6-0.1
		c-0.9,1-1.9,1.9-3.1,2.6c-3.2,0.6-6.4,0.9-9.6,0.9C-13.2,38.3-16.4,38-19.6,37.5z M-9.9,35.2c-4.5,0-9-0.4-13.4-1.2
		c-0.6-0.7-1.1-1.5-1.6-2.3c1.9,0.3,4.5,0.6,5.8,0.7c0.4,0,0.5,0.3,0.9,0.4c0.4,0,1.2,0.1,1.4,0.1c0.6,0,0.6-0.2,1-0.2
		c0.1,0,0.3,0,0.4,0c1.6,0.1,4.7,0.2,4.7,0.2c1.4,0,1,1.2,2.6,1.2c3.7-0.1,7.4-0.4,11.1-1C3.8,33,4,31.9,4.7,31.8c0,0,0.2,0,0.3-0.1
		c-0.5,0.8-1,1.6-1.6,2.3C-0.9,34.8-5.4,35.2-9.9,35.2L-9.9,35.2z M-9.9,32c-1.8,0-3.6,0-5.4-0.1c-0.1,0-0.1,0-0.2,0
		c-0.5,0-0.6-0.3-1.1-0.4c-0.3,0-1-0.1-1.4-0.1c-0.2,0-0.4,0-0.6,0.1c-0.2,0.1-0.4,0.1-0.6,0.1c-1.5-0.1-4.1-0.4-6.1-0.7
		c-0.4-0.7-0.7-1.4-0.9-2.1c5.1,0.5,10.2,0.8,15.3,0.8c1.4,0,1.3,1.2,2.7,1.2c4.3-0.1,8.5-0.4,12.8-0.9c1.2-0.2,1-1.1,1.5-1.2
		c0,0,0.2,0,0.3,0c-0.3,0.7-0.6,1.4-0.9,2.1C0.4,31.7-4.8,32-9.9,32L-9.9,32z M-26.5,28.2c-0.2-0.7-0.4-1.4-0.5-2
		c4.6,0.2,9.4,0.4,14,0.5c1.4,0,1.1,1.3,3,1.3c5.2,0,10.3-0.2,15.5-0.6c1.2-0.1,0.8-1.1,1.3-1.1c0,0,0.1,0,0.2,0
		c-0.1,0.7-0.3,1.4-0.5,2c-5.5,0.5-11,0.7-16.5,0.7S-20.9,28.7-26.5,28.2z M-27,25.4c-0.1-0.7-0.1-1.3-0.2-2c4,0,8.1,0,12.1,0
		c1.4,0,1.2,1.3,2.7,1.3c6.2,0,12.3-0.1,18.5-0.3c1.1-0.1,0.6-1,1-1.1c0,0,0.2,0,0.2,0c0,0.7-0.1,1.4-0.2,2
		c-5.7,0.2-11.4,0.4-17.1,0.4S-21.3,25.7-27,25.4z M-27.2,22.7c0-0.7,0.1-1.4,0.2-2c4.2-0.2,7.2-0.2,10.5-0.3c1.4,0,1.1,1.3,3,1.2
		c0,0,12.7,0,19.1,0.1c0,0,0,0,0,0c0,0,0,0,0,0c1.6,0,0.9-1,1.3-1c0,0,0.2,0,0.3,0c0.1,0.7,0.2,1.3,0.2,2
		C-4.2,22.7-15.7,22.7-27.2,22.7z M-26.9,20c0.1-0.7,0.3-1.4,0.5-2.1c2.9-0.3,5.9-0.5,8.8-0.6c0.1,0,0.2,0,0.3,0h0.1
		c1.4,0,1.1,1.2,3,1.2c3.6,0,12.5-0.1,19.3,0.4c0.9,0.1,1-0.2,1-0.5c0-0.3-0.1-0.5,0.2-0.5c0,0,0.2,0,0.2,0C6.8,18.6,7,19.3,7.1,20
		C-4.2,19.4-15.6,19.4-26.9,20z M-26.2,17.2c0.3-0.7,0.6-1.4,0.9-2.1c2.7-0.4,6.3-0.7,8.1-0.8c0.5,0,1,0.2,1.3,0.6
		c0.5,0.4,1.1,0.6,1.7,0.6h0c0,0,0,0,0,0c6.1-0.2,12.2,0,18.2,0.6c0,0,0,0,0,0s0,0,0,0c0.7,0.1,0.8-0.2,0.8-0.5
		c0-0.3-0.1-0.5,0.2-0.5l0.2,0c0.4,0.7,0.7,1.4,0.9,2.1C-4.5,16.1-15.4,16.1-26.2,17.2z M-24.8,14.4c0.5-0.8,1-1.6,1.6-2.3
		c2.3-0.4,4.9-0.7,7.1-0.9c0.5-0.1,1,0.2,1.3,0.6c0.4,0.4,1,0.6,1.6,0.6c5.2-0.2,10.5,0.1,15.7,0.7c0.7,0.1,0.7-0.2,0.6-0.5
		C3,12.3,2.9,12,3.2,12.1c0.1,0,0.1,0,0.2,0C4,12.8,4.5,13.6,5,14.4C-4.9,12.9-14.9,12.9-24.8,14.4z M-22.5,11.3
		c0.9-1,2-1.9,3.2-2.6c3-0.5,6-0.7,6.3-0.7c1.3-0.1,1,1.3,2.8,1.3l0,0c3.2,0,6.4,0.2,9.6,0.6l0,0c0.3,0,0.5-0.1,0.4-0.3
		C-0.4,9.2-0.9,8.8-1,8.7c0-0.1,0-0.1,0.1-0.1c0.1,0,0.4,0.1,0.5,0.1c1.2,0.8,2.2,1.6,3.2,2.6C-5.7,9.8-14.2,9.8-22.5,11.3
		L-22.5,11.3z M-17.5,7.6c4.8-2.3,10.4-2.3,15.2,0C-7.4,6.8-12.5,6.8-17.5,7.6z"/>
</g>
<g id="Grupo_1956" transform="translate(0 68.385)">
	<g id="Grupo_1952" transform="translate(17.042 22.004)">
		<g id="Grupo_1951">
			<g id="Grupo_1950">
				<g id="Grupo_1949">
					<path id="Caminho_3507" class="st1" d="M37.3-61.8v1.4h1.1v-1.4h0.8v3.7h-0.8v-1.7h-1.1v1.7h-0.7v-3.7L37.3-61.8z"/>
					<path id="Caminho_3508" class="st1" d="M41.9-60.4c0.2,0.3,0.3,0.6,0.3,1c0,0.4-0.1,0.8-0.3,1.1C41.6-58.1,41.3-58,41-58
						c-0.7,0-1.2-0.6-1.2-1.3c0-0.1,0-0.1,0-0.2c-0.1-0.7,0.4-1.3,1.1-1.4c0,0,0.1,0,0.1,0C41.3-60.9,41.7-60.7,41.9-60.4z M40.6-60
						c-0.1,0.2-0.1,0.4-0.1,0.6c0,0.2,0,0.5,0.1,0.7c0.1,0.1,0.2,0.2,0.4,0.2c0.3,0,0.4-0.3,0.4-0.9c0-0.3,0-0.5-0.1-0.7
						c-0.1-0.1-0.2-0.1-0.3-0.1C40.8-60.3,40.7-60.2,40.6-60L40.6-60z"/>
					<path id="Caminho_3509" class="st1" d="M44.4-60.1c-0.2-0.1-0.4-0.2-0.7-0.2c-0.2,0-0.3,0.1-0.3,0.3c0,0.1,0.1,0.2,0.3,0.3
						l0.3,0.1c0.2,0,0.4,0.1,0.5,0.3c0.1,0.1,0.2,0.3,0.2,0.5c0,0.6-0.5,1-1.2,1c-0.4,0-0.8-0.1-1.1-0.3l0.3-0.5
						c0.3,0.2,0.6,0.3,0.9,0.3c0.2,0,0.3-0.1,0.4-0.3c0,0,0,0,0,0c0-0.2-0.1-0.3-0.4-0.3l-0.3-0.1c-0.2,0-0.4-0.1-0.5-0.3
						c-0.1-0.1-0.2-0.3-0.2-0.5c0-0.5,0.4-0.9,1.1-0.9c0.3,0,0.7,0.1,1,0.3L44.4-60.1z"/>
					<path id="Caminho_3510" class="st1" d="M45.9-60.9c0,0.1,0,0.2,0,0.3c0.2-0.2,0.4-0.3,0.7-0.3c0.2,0,0.4,0.1,0.5,0.2
						c0.4,0.3,0.6,0.7,0.5,1.2c0.1,0.4-0.1,0.9-0.4,1.2c-0.2,0.2-0.5,0.3-0.7,0.3c-0.2,0-0.4,0-0.6-0.1c0,0.1,0,0.1,0,0.2v0.9
						l-0.7,0.2v-3.2c0-0.2,0-0.5,0-0.7L45.9-60.9z M46.4-58.6c0.4,0,0.5-0.2,0.5-0.9c0-0.2,0-0.4-0.1-0.6c0-0.1-0.2-0.2-0.3-0.2
						c-0.2,0-0.4,0.1-0.5,0.2v1.3C46.1-58.6,46.2-58.6,46.4-58.6L46.4-58.6z"/>
					<path id="Caminho_3511" class="st1" d="M49-61.6c0,0.2-0.2,0.4-0.4,0.4c-0.2,0-0.4-0.2-0.4-0.4c0-0.2,0.2-0.4,0.4-0.4
						c0,0,0,0,0,0C48.8-62,49-61.8,49-61.6C49-61.6,49-61.6,49-61.6z M48.9-60.9v2.8h-0.7v-2.7L48.9-60.9z"/>
					<path id="Caminho_3512" class="st1" d="M50.8-60.3h-0.5v1.4c0,0.3,0.1,0.4,0.3,0.4c0.1,0,0.2,0,0.3-0.1l0.1,0.4
						C50.8-58,50.6-58,50.4-58c-0.3,0-0.6-0.1-0.7-0.4c0-0.1-0.1-0.3,0-0.4v-1.5h-0.3v-0.5h0.3c0-0.2,0-0.4,0-0.6l0.7-0.2
						c0,0.3,0,0.6,0,0.8H51L50.8-60.3z"/>
					<path id="Caminho_3513" class="st1" d="M51.8-60.7c0.2-0.1,0.5-0.2,0.8-0.2c0.4-0.1,0.7,0.1,0.9,0.5c0,0.2,0.1,0.3,0,0.5l0,0.9
						v0c0,0.2,0.1,0.4,0.3,0.6l-0.4,0.4C53.2-58,53-58.1,53-58.2c-0.1,0.1-0.1,0.1-0.2,0.1c-0.2,0.1-0.4,0.2-0.6,0.1
						c-0.6,0-0.9-0.3-0.9-0.9c0-0.6,0.4-0.9,1.3-0.9c0.1,0,0.1,0,0.2,0v-0.1c0-0.3-0.1-0.4-0.3-0.4c-0.3,0-0.6,0.1-0.8,0.3l-0.3-0.5
						C51.5-60.6,51.6-60.6,51.8-60.7z M52.7-59.3c-0.5,0-0.7,0.1-0.7,0.4c0,0.2,0.1,0.3,0.3,0.4c0,0,0,0,0,0c0.1,0,0.3-0.1,0.4-0.2
						L52.7-59.3L52.7-59.3z"/>
					<path id="Caminho_3514" class="st1" d="M54.9-61.3v2.1c0,0.5,0,0.5,0,0.6c0,0,0.1,0.1,0.1,0.1c0,0,0.1,0,0.1,0l0.1,0.4
						C55.2-58,55-58,54.9-58c-0.3,0-0.5-0.1-0.6-0.4c-0.1-0.2-0.1-0.4-0.1-0.6v-2c0-0.3,0-0.6,0-0.8l0.7-0.2
						C54.9-61.8,54.9-61.5,54.9-61.3z"/>
					<path id="Caminho_3515" class="st1" d="M59.2-58.4c-0.3,0.2-0.7,0.4-1,0.4c-0.7,0-1.3-0.5-1.3-1.2c0-0.1,0-0.1,0-0.2
						c0-0.4,0.1-0.8,0.3-1.1c0.2-0.2,0.5-0.4,0.9-0.4c0.3,0,0.6,0.1,0.8,0.3c0.3,0.3,0.4,0.8,0.4,1.2v0.2h-1.6v0
						c0,0.4,0.2,0.7,0.6,0.7c0.3,0,0.5-0.1,0.7-0.3L59.2-58.4z M58.5-59.7L58.5-59.7c0-0.2,0-0.3-0.1-0.4c-0.1-0.1-0.2-0.2-0.3-0.2
						c-0.3,0-0.4,0.2-0.4,0.6v0L58.5-59.7z"/>
					<path id="Caminho_3516" class="st1" d="M62.3-61.8l0.5,1.9c0.1,0.2,0.1,0.4,0.1,0.6c0-0.2,0.1-0.4,0.1-0.6l0.5-1.8h1l0.3,3.7
						h-0.7L64-60c0-0.2,0-0.4,0-0.6c0,0.2-0.1,0.3-0.1,0.6l-0.6,2h-0.6L62-60c0-0.2-0.1-0.4-0.1-0.7c0,0.2,0,0.4,0,0.7l-0.1,1.9H61
						l0.3-3.7L62.3-61.8z"/>
					<path id="Caminho_3517" class="st1" d="M65.9-60.7c0.2-0.1,0.5-0.2,0.8-0.2c0.5,0,0.8,0.2,0.9,0.5c0,0.2,0.1,0.3,0,0.5l0,0.9v0
						c0,0.2,0.1,0.4,0.3,0.6l-0.4,0.4c-0.2-0.1-0.3-0.2-0.4-0.3c-0.1,0.1-0.1,0.1-0.2,0.1c-0.2,0.1-0.4,0.2-0.6,0.1
						c-0.6,0-0.9-0.3-0.9-0.9c0-0.6,0.4-0.9,1.3-0.9c0.1,0,0.1,0,0.2,0v-0.1c0-0.3-0.1-0.4-0.3-0.4c-0.3,0-0.6,0.1-0.8,0.3l-0.3-0.5
						C65.6-60.6,65.7-60.6,65.9-60.7z M66.8-59.3c-0.5,0-0.7,0.1-0.7,0.4c0,0.2,0.1,0.3,0.3,0.4c0,0,0,0,0,0c0.1,0,0.3-0.1,0.4-0.2
						L66.8-59.3L66.8-59.3z"/>
					<path id="Caminho_3518" class="st1" d="M69.4-60.3H69v1.4c0,0.3,0.1,0.4,0.3,0.4c0.1,0,0.2,0,0.3-0.1l0.1,0.4
						C69.5-58,69.3-58,69.1-58c-0.3,0-0.6-0.1-0.7-0.4c0-0.1-0.1-0.3,0-0.4v-1.5H68v-0.5h0.3c0-0.2,0-0.4,0-0.6l0.7-0.2
						c0,0.3,0,0.6,0,0.8h0.6L69.4-60.3z"/>
					<path id="Caminho_3519" class="st1" d="M72.3-58.4c-0.3,0.2-0.7,0.4-1,0.4c-0.7,0-1.3-0.5-1.3-1.2c0-0.1,0-0.1,0-0.2
						c0-0.4,0.1-0.8,0.3-1.1c0.2-0.2,0.5-0.4,0.9-0.4c0.3,0,0.6,0.1,0.8,0.3c0.3,0.3,0.4,0.8,0.4,1.2v0.2h-1.6v0
						c0,0.4,0.2,0.7,0.6,0.7c0.3,0,0.5-0.1,0.7-0.3L72.3-58.4z M71.5-59.7L71.5-59.7c0-0.2,0-0.3-0.1-0.4c-0.1-0.1-0.2-0.2-0.3-0.2
						c-0.3,0-0.4,0.2-0.4,0.6v0L71.5-59.7z"/>
					<path id="Caminho_3520" class="st1" d="M73.4-60.9c0.1,0.1,0.1,0.3,0.1,0.4c0.1-0.1,0.2-0.3,0.4-0.3c0.1,0,0.2,0,0.2,0
						c0.1,0,0.2,0,0.3,0.1l-0.2,0.6c-0.1,0-0.1-0.1-0.2-0.1c-0.2,0-0.3,0.1-0.4,0.2v1.9h-0.7v-1.8c0-0.3,0-0.5-0.1-0.8L73.4-60.9z"
						/>
					<path id="Caminho_3521" class="st1" d="M75.3-60.9c0.1,0.1,0.1,0.2,0.1,0.3c0.1-0.1,0.2-0.1,0.3-0.2c0.2-0.1,0.3-0.1,0.5-0.1
						c0.3,0,0.5,0.1,0.7,0.4c0,0.1,0.1,0.3,0.1,0.4v2h-0.7v-1.8c0-0.3-0.1-0.4-0.2-0.4c-0.2,0-0.4,0.1-0.5,0.2v1.9h-0.7v-2
						c0-0.2,0-0.4-0.1-0.6L75.3-60.9z"/>
					<path id="Caminho_3522" class="st1" d="M78.4-61.6c0,0.2-0.2,0.4-0.4,0.5c-0.2,0-0.4-0.2-0.5-0.4c0,0,0,0,0,0
						c0-0.2,0.2-0.4,0.5-0.4c0,0,0,0,0,0C78.3-62,78.4-61.8,78.4-61.6C78.4-61.6,78.4-61.6,78.4-61.6z M78.4-60.9v2.8h-0.7v-2.7
						L78.4-60.9z"/>
					<path id="Caminho_3523" class="st1" d="M81.3-59.1c0,0.3,0,0.7,0.1,1h-0.6c0-0.1,0-0.1,0-0.2c-0.2,0.2-0.4,0.2-0.6,0.2
						c-0.7,0-1.1-0.5-1.1-1.4s0.5-1.4,1.2-1.4c0.2,0,0.4,0,0.5,0.2c0-0.1,0-0.3,0-0.4V-62l0.7,0.1L81.3-59.1z M80.2-60.3
						c-0.3,0-0.5,0.3-0.5,0.9c0,0.6,0.1,0.8,0.5,0.8c0.1,0,0.3-0.1,0.4-0.2v-1.3C80.5-60.2,80.3-60.2,80.2-60.3L80.2-60.3z"/>
					<path id="Caminho_3524" class="st1" d="M82.4-60.7c0.2-0.1,0.5-0.2,0.8-0.2c0.4-0.1,0.7,0.1,0.9,0.5c0,0.2,0.1,0.3,0,0.5l0,0.9
						v0c0,0.2,0.1,0.4,0.3,0.6l-0.4,0.4c-0.2-0.1-0.3-0.2-0.4-0.3c-0.1,0.1-0.1,0.1-0.2,0.1c-0.2,0.1-0.4,0.2-0.6,0.1
						c-0.6,0-0.9-0.3-0.9-0.9c0-0.6,0.4-0.9,1.3-0.9c0.1,0,0.1,0,0.2,0v-0.1c0-0.3-0.1-0.4-0.3-0.4c-0.3,0-0.6,0.1-0.8,0.3L82-60.5
						C82.1-60.6,82.2-60.6,82.4-60.7z M83.3-59.3c-0.5,0-0.7,0.1-0.7,0.4c0,0.2,0.1,0.3,0.3,0.4c0,0,0,0,0,0c0.1,0,0.3-0.1,0.4-0.2
						L83.3-59.3L83.3-59.3z"/>
					<path id="Caminho_3525" class="st1" d="M87-59.1c0,0.3,0,0.7,0.1,1h-0.6c0-0.1,0-0.1,0-0.2C86.2-58.1,86-58,85.8-58
						c-0.7,0-1.1-0.5-1.1-1.4s0.5-1.4,1.2-1.4c0.2,0,0.3,0,0.5,0.2c0-0.1,0-0.3,0-0.4V-62l0.7,0.1L87-59.1z M85.9-60.3
						c-0.3,0-0.5,0.3-0.5,0.9c0,0.6,0.1,0.8,0.5,0.8c0.1,0,0.3-0.1,0.4-0.2v-1.3C86.2-60.2,86.1-60.2,85.9-60.3L85.9-60.3z"/>
					<path id="Caminho_3526" class="st1" d="M89.9-58.4c-0.3,0.2-0.7,0.4-1,0.4c-0.7,0-1.3-0.5-1.3-1.2c0-0.1,0-0.1,0-0.2
						c0-0.4,0.1-0.8,0.3-1.1c0.2-0.2,0.5-0.4,0.9-0.4c0.3,0,0.6,0.1,0.8,0.3c0.3,0.3,0.4,0.8,0.4,1.2v0.2h-1.6v0
						c0,0.4,0.2,0.7,0.6,0.7c0.3,0,0.5-0.1,0.7-0.3L89.9-58.4z M89.2-59.7L89.2-59.7c0-0.2,0-0.3-0.1-0.4c-0.1-0.1-0.2-0.2-0.3-0.2
						c-0.3,0-0.4,0.2-0.4,0.6v0L89.2-59.7z"/>
				</g>
			</g>
		</g>
	</g>
	<g id="Grupo_1955">
		<g id="Grupo_1954">
			<g id="Grupo_1953">
				<path id="Caminho_3527" class="st1" d="M49.5-51c-0.7-0.5-1.5-0.7-2.3-0.7c-0.8,0-1.4,0.5-1.4,1.1c0,0.5,0.3,0.8,1.1,1l1.2,0.3
					c1.6,0.4,2.5,1.5,2.5,2.9c0,2-1.6,3.3-4.1,3.3c-1.2,0-2.3-0.3-3.3-0.9l0.7-1.5c0.8,0.5,1.7,0.8,2.7,0.8c1.1,0,1.7-0.5,1.7-1.3
					c0-0.6-0.4-1-1.3-1.3L46-47.6c-0.8-0.1-1.5-0.6-1.9-1.2c-0.3-0.5-0.4-1-0.4-1.5c0-1.8,1.4-3,3.5-3c1.2,0,2.3,0.3,3.3,1L49.5-51z
					"/>
				<path id="Caminho_3528" class="st1" d="M53.1-50.2c0.6-0.3,1.3-0.4,2-0.4c1.2,0,2,0.5,2.3,1.3c0.1,0.4,0.2,0.9,0.1,1.3l0,2.4
					v0.1c-0.1,0.6,0.2,1.2,0.7,1.5l-1,1.2c-0.4-0.2-0.8-0.5-1-0.9c-0.1,0.1-0.3,0.3-0.4,0.4c-0.4,0.3-0.9,0.4-1.5,0.4
					c-1.6,0-2.5-0.8-2.5-2.3c0-1.7,1.2-2.5,3.5-2.5c0.1,0,0.3,0,0.4,0V-48c0-0.8-0.2-1.1-0.8-1.1c-0.8,0.1-1.5,0.4-2.1,0.8l-0.8-1.4
					C52.3-49.9,52.7-50.1,53.1-50.2z M55.5-46.4c-1.3,0-1.8,0.2-1.8,1.1c0,0.5,0.3,0.9,0.8,0.9c0,0,0,0,0.1,0c0.4,0,0.7-0.2,1-0.5
					L55.5-46.4L55.5-46.4z"/>
				<path id="Caminho_3529" class="st1" d="M60.9-50.7c0.2,0.3,0.3,0.6,0.3,0.9c0.3-0.2,0.5-0.4,0.8-0.5c0.4-0.2,0.8-0.3,1.3-0.3
					c0.7,0,1.4,0.4,1.7,1c0.1,0.3,0.2,0.7,0.1,1v5.3h-1.9V-48c0-0.8-0.1-1.1-0.6-1.1c-0.5,0.1-1,0.3-1.3,0.6v5.1h-1.9v-5.2
					c0-0.6-0.1-1.2-0.3-1.7L60.9-50.7z"/>
				<path id="Caminho_3530" class="st1" d="M70.2-49.2h-1.2v3.6c0,0.9,0.2,1.2,0.8,1.2c0.2,0,0.5-0.1,0.7-0.1l0.2,1.1
					c-0.5,0.2-1,0.3-1.5,0.3c-0.8,0.1-1.6-0.3-2-1.1c-0.1-0.4-0.2-0.7-0.1-1.1v-3.9h-0.7v-1.3h0.7c0-0.6,0-1.1,0.1-1.7l1.9-0.5
					c-0.1,0.7-0.1,1.5-0.1,2.2h1.7L70.2-49.2z"/>
				<path id="Caminho_3531" class="st1" d="M72.8-50.2c0.6-0.3,1.3-0.4,2-0.4c1.2,0,2,0.5,2.3,1.3c0.1,0.4,0.2,0.9,0.1,1.3l0,2.4
					v0.1c-0.1,0.6,0.2,1.2,0.7,1.5l-1,1.2c-0.4-0.2-0.8-0.5-1-0.9c-0.1,0.1-0.3,0.3-0.4,0.4c-0.4,0.3-0.9,0.4-1.5,0.4
					c-1.6,0-2.5-0.8-2.5-2.3c0-1.7,1.2-2.5,3.5-2.5c0.1,0,0.3,0,0.4,0V-48c0-0.8-0.2-1.1-0.8-1.1c-0.8,0.1-1.5,0.4-2.1,0.8l-0.8-1.4
					C72-49.9,72.4-50.1,72.8-50.2z M75.2-46.4c-1.3,0-1.8,0.2-1.8,1.1c0,0.5,0.3,0.9,0.8,0.9c0,0,0,0,0.1,0c0.4,0,0.7-0.2,1-0.5
					L75.2-46.4L75.2-46.4z"/>
				<path id="Caminho_3532" class="st1" d="M84.5-53.1v7.9c0,0.6,0,1.3-0.1,1.9c-0.4,1.1-1.2,1.9-2.3,2.3l-0.9-1
					c0.5-0.3,0.9-0.7,1.1-1.2c0.2-0.6,0.3-1.2,0.2-1.8v-8.1L84.5-53.1z"/>
				<path id="Caminho_3533" class="st1" d="M91.9-49.5c0.6,0.7,0.9,1.7,0.8,2.6c0.1,1-0.3,2-0.9,2.8c-0.6,0.7-1.5,1.1-2.4,1
					c-2,0-3.3-1.5-3.3-3.7s1.3-3.8,3.3-3.8C90.4-50.7,91.3-50.3,91.9-49.5z M88.5-48.5c-0.3,1.1-0.3,2.3,0,3.4
					c0.2,0.4,0.6,0.6,1,0.6c0.8,0,1.2-0.7,1.2-2.4c0.1-0.7-0.1-1.3-0.4-1.9c-0.4-0.4-1-0.5-1.5-0.1C88.6-48.9,88.5-48.7,88.5-48.5
					L88.5-48.5z"/>
				<path id="Caminho_3534" class="st1" d="M95-50.2c0.6-0.3,1.3-0.4,2-0.4c1.2,0,2,0.5,2.3,1.3c0.1,0.4,0.2,0.9,0.1,1.3l0,2.4v0.1
					c-0.1,0.6,0.2,1.2,0.7,1.5l-1,1.2c-0.4-0.2-0.8-0.5-1-0.9c-0.1,0.1-0.3,0.3-0.4,0.4c-0.4,0.3-0.9,0.4-1.5,0.4
					c-1.6,0-2.5-0.8-2.5-2.3c0-1.7,1.2-2.5,3.5-2.5c0.1,0,0.3,0,0.4,0V-48c0-0.8-0.2-1.1-0.8-1.1c-0.8,0.1-1.5,0.4-2.1,0.8l-0.8-1.4
					C94.2-49.9,94.6-50.1,95-50.2z M97.5-46.4c-1.3,0-1.8,0.2-1.8,1.1c0,0.5,0.3,0.9,0.8,0.9c0,0,0,0,0.1,0c0.4,0,0.7-0.2,1-0.5
					L97.5-46.4L97.5-46.4z"/>
				<path id="Caminho_3535" class="st1" d="M102.9-50.7c0.2,0.3,0.3,0.6,0.3,0.9c0.3-0.2,0.5-0.4,0.8-0.5c0.4-0.2,0.8-0.3,1.3-0.3
					c0.7,0,1.4,0.4,1.7,1c0.1,0.3,0.2,0.7,0.1,1v5.3h-1.9V-48c0-0.8-0.1-1.1-0.6-1.1c-0.5,0.1-1,0.3-1.3,0.6v5.1h-1.9v-5.2
					c0-0.6-0.1-1.2-0.3-1.7L102.9-50.7z"/>
				<path id="Caminho_3536" class="st1" d="M110-50.2c0.6-0.3,1.3-0.4,2-0.4c1.2,0,2.1,0.5,2.3,1.3c0.1,0.4,0.2,0.9,0.1,1.3l0,2.4
					v0.1c-0.1,0.6,0.2,1.2,0.7,1.5l-1,1.2c-0.4-0.2-0.8-0.5-1-0.9c-0.1,0.1-0.3,0.3-0.4,0.4c-0.4,0.3-0.9,0.4-1.5,0.4
					c-1.6,0-2.5-0.8-2.5-2.3c0-1.7,1.2-2.5,3.5-2.5c0.1,0,0.3,0,0.4,0V-48c0-0.8-0.2-1.1-0.8-1.1c-0.8,0.1-1.5,0.4-2.1,0.8l-0.8-1.4
					C109.2-49.9,109.6-50.1,110-50.2z M112.4-46.4c-1.3,0-1.8,0.2-1.8,1.1c0,0.5,0.3,0.9,0.8,0.9c0,0,0,0,0.1,0c0.4,0,0.7-0.2,1-0.5
					L112.4-46.4L112.4-46.4z"/>
			</g>
		</g>
	</g>
</g>
</svg>
