<?xml version="1.0" encoding="UTF-8"?> <svg xmlns="http://www.w3.org/2000/svg" id="Camada_1" data-name="Camada 1" viewBox="0 0 1190.55 412.7"><defs><style> .cls-1 { fill: #01498e; stroke-width: 0px; } </style></defs><polygon class="cls-1" points="115.48 57.16 112.91 56.67 110.44 56.16 107.78 55.77 105.22 55.28 99.99 54.6 94.67 54 92 53.7 89.35 53.51 86.69 53.31 83.92 53.11 81.36 52.92 78.7 52.82 76.14 52.82 73.57 52.82 70.81 52.82 68.05 52.82 65.29 52.92 62.53 53.11 59.68 53.31 56.81 53.6 54.05 53.9 51.29 54.29 48.43 54.79 45.67 55.28 43.01 55.87 40.34 56.57 37.69 57.35 35.13 58.24 32.66 59.13 30.19 60.22 27.82 61.39 25.66 62.68 23.49 64.06 21.51 65.54 19.54 67.12 17.86 68.89 16.19 70.67 14.61 72.74 13.23 74.81 12.05 77.08 10.97 79.45 10.08 82.01 9.48 84.68 8.99 87.54 8.6 90.6 8.5 93.75 8.7 98.19 9.29 102.23 10.08 105.98 11.36 109.34 12.84 112.39 14.61 115.25 16.69 117.82 18.86 120 21.32 122.06 23.97 123.84 26.74 125.52 29.5 126.89 32.55 128.18 35.62 129.37 38.67 130.34 41.73 131.24 53.96 133.9 64.6 136.36 66.86 137.06 68.94 137.74 70.61 138.54 72.2 139.52 73.37 140.51 74.26 141.69 74.85 143.07 75.05 144.55 74.95 145.14 74.95 145.63 74.76 146.23 74.56 146.72 74.26 147.21 73.97 147.7 73.57 148.1 73.27 148.59 72.78 148.99 72.29 149.38 71.79 149.77 71.1 150.08 70.52 150.47 69.93 150.77 69.13 150.96 68.45 151.25 66.86 151.74 65.19 152.15 63.41 152.44 61.55 152.84 59.58 152.93 57.5 153.13 55.43 153.23 53.27 153.23 50.5 153.23 47.84 153.13 44.98 152.93 42.22 152.74 39.46 152.44 36.59 152.05 33.74 151.65 30.98 151.15 28.22 150.57 25.46 149.98 22.7 149.28 20.03 148.5 17.37 147.7 14.81 146.82 12.25 145.93 9.78 144.94 9.78 177.69 13.13 178.48 16.49 179.17 19.74 179.76 23 180.46 26.15 180.95 29.41 181.45 32.55 181.94 35.71 182.33 38.87 182.63 42.02 182.92 45.28 183.12 48.43 183.32 51.78 183.51 55.13 183.61 58.49 183.61 61.94 183.71 64.6 183.61 67.26 183.61 70.02 183.51 72.69 183.32 75.44 183.02 78.1 182.72 80.77 182.33 83.43 181.84 86.09 181.34 88.66 180.65 91.32 179.97 93.78 179.27 96.24 178.38 98.72 177.4 101.08 176.32 103.35 175.22 105.52 173.94 107.59 172.57 109.56 171.19 111.43 169.6 113.31 167.93 114.98 166.15 116.45 164.18 117.94 162.21 119.12 160.04 120.3 157.77 121.29 155.41 122.08 152.84 122.76 150.18 123.16 147.31 123.46 144.36 123.56 141.3 123.35 136.86 122.86 132.91 121.98 129.16 120.7 125.81 119.22 122.75 117.45 120 115.48 117.42 113.21 115.25 110.74 113.28 108.18 111.41 105.42 109.92 102.55 108.45 99.5 107.27 96.54 106.18 93.49 105.2 90.34 104.3 78.1 101.74 67.45 99.48 65.19 98.88 63.22 98.09 61.44 97.39 59.97 96.51 58.68 95.52 57.9 94.34 57.3 93.06 57.1 91.58 57.1 90.79 57.2 90.11 57.4 89.51 57.7 88.92 57.99 88.33 58.39 87.83 58.78 87.34 59.27 86.85 59.77 86.46 60.36 86.05 61.05 85.66 61.65 85.36 62.33 85.07 63.12 84.78 63.91 84.58 64.7 84.38 66.28 83.98 67.96 83.79 69.72 83.59 71.4 83.39 74.85 83.3 77.91 83.3 80.48 83.3 83.04 83.39 85.6 83.49 88.06 83.69 90.53 83.98 93 84.28 95.36 84.58 97.72 84.97 100.09 85.46 102.36 85.95 104.72 86.46 106.89 86.95 109.07 87.63 111.24 88.22 113.4 88.92 115.48 89.61 115.48 57.16"></polygon><polygon class="cls-1" points="122.47 181.54 166.84 54.99 233.68 54.99 278.94 181.54 227.96 181.54 199.66 82.11 199.37 82.11 170.87 181.54 122.47 181.54"></polygon><path class="cls-1" d="M322.32,118.32v-4.94l.2-2.76.29-2.86.1-1.38.2-1.48.29-1.47.21-1.38.39-1.48.29-1.48.49-1.37.49-1.38.5-1.29.49-1.37.68-1.19.69-1.28.69-1.08.88-1.09.89-1.09.88-.88,1.09-.79,1.08-.78,1.19-.69,1.28-.5,1.38-.49,1.48-.29,1.57-.2h3.26l1.58.2,1.48.29,1.37.49,1.29.5,1.28.69,1.18.78,1.09.79.88.88.98,1.09.79,1.09.78,1.08.7,1.28.68,1.19.49,1.37.49,1.29.6,1.38.39,1.37.39,1.48.29,1.48.29,1.38.19,1.47.21,1.48.19,1.38.29,2.86.19,2.76.1,2.56v4.94l-.1,2.76-.19,2.86-.1,2.96-.19,1.47-.19,1.48-.3,1.48-.2,1.38-.29,1.47-.39,1.39-.39,1.38-.39,1.38-.5,1.28-.68,1.28-.59,1.19-.7,1.08-.69,1.09-.88,1.08-.89.9-.98.88-1.19.8-1.08.68-1.28.7-1.29.49-1.47.39-1.48.19-1.68.19-1.77.1-1.58-.1-1.57-.19-1.29-.19-1.38-.39-1.28-.49-1.18-.7-1.08-.68-.99-.8-.98-.88-.89-.9-.78-1.08-.78-1.09-.7-1.08-.59-1.19-.58-1.28-.5-1.28-.49-1.38-.49-1.38-.39-1.39-.29-1.47-.29-1.38-.2-1.48-.29-1.48-.19-1.47-.2-2.96-.19-2.86-.1-2.76v-2.56ZM412.33,118.32l-.1-4.05-.2-3.74-.39-3.66-.59-3.65-.68-3.44-.79-3.26-.98-3.26-1.09-3.15-1.28-2.96-1.38-2.86-1.48-2.76-1.68-2.56-1.86-2.57-1.97-2.36-2.07-2.27-2.17-2.17-2.38-1.97-2.47-1.87-2.66-1.78-2.66-1.58-2.86-1.58-2.95-1.38-3.16-1.29-3.15-1.08-3.36-.99-3.35-.88-3.54-.7-3.65-.59-3.84-.49-3.85-.29-4.04-.29h-8.18l-3.94.29-3.85.29-3.74.49-3.65.59-3.55.7-3.45.88-3.25.99-3.16,1.08-3.15,1.29-2.95,1.38-2.77,1.58-2.76,1.58-2.46,1.78-2.57,1.87-2.27,1.97-2.17,2.17-2.07,2.27-1.87,2.36-1.78,2.57-1.67,2.56-1.48,2.76-1.48,2.86-1.27,2.96-.99,3.15-.98,3.26-.79,3.26-.69,3.44-.49,3.65-.4,3.66-.29,3.74v8l.29,3.85.4,3.75.49,3.55.69,3.55.79,3.35.98,3.26.99,3.16,1.27,2.95,1.48,2.86,1.48,2.77,1.67,2.66,1.78,2.47,1.87,2.37,2.07,2.28,2.17,2.07,2.27,1.98,2.57,1.97,2.46,1.68,2.76,1.68,2.77,1.37,2.95,1.38,3.15,1.29,3.16,1.08,3.25.99,3.45.78,3.55.79,3.65.49,3.74.49,3.85.39,3.94.1,4.14.11,4.04-.11,4.04-.1,3.85-.39,3.84-.49,3.65-.49,3.54-.79,3.35-.78,3.36-.99,3.15-1.08,3.16-1.29,2.95-1.38,2.86-1.37,2.66-1.68,2.66-1.68,2.47-1.97,2.38-1.98,2.17-2.07,2.07-2.28,1.97-2.37,1.86-2.47,1.68-2.66,1.48-2.77,1.38-2.86,1.28-2.95,1.09-3.16.98-3.26.79-3.35.68-3.55.59-3.55.39-3.75.2-3.85.1-3.94Z"></path><polygon class="cls-1" points="548.48 181.54 675.08 181.54 675.08 144.15 597.09 144.15 597.09 54.99 548.48 54.99 548.48 181.54"></polygon><polygon class="cls-1" points="723.48 54.99 674.88 54.99 674.88 131.82 674.98 135.28 675.17 138.54 675.57 141.79 676.17 144.75 676.75 147.7 677.64 150.47 678.63 153.13 679.81 155.7 680.99 158.16 682.37 160.43 683.85 162.6 685.53 164.67 687.2 166.64 689.08 168.43 691.05 170.19 693.12 171.77 695.39 173.26 697.56 174.64 700.02 175.91 702.38 177.1 704.95 178.29 707.61 179.17 710.37 180.06 713.13 180.85 715.99 181.54 718.95 182.14 722.01 182.62 725.06 183.02 728.22 183.32 731.37 183.51 734.63 183.6 737.89 183.71 741.43 183.6 744.98 183.51 748.32 183.32 751.68 183.02 754.83 182.62 757.99 182.23 761.05 181.63 764 180.95 766.86 180.16 769.53 179.37 772.29 178.39 774.75 177.3 777.21 176.12 779.59 174.83 781.85 173.45 783.92 171.87 785.99 170.19 787.96 168.43 789.63 166.54 791.31 164.57 792.89 162.4 794.37 160.04 795.65 157.67 796.84 155.1 797.81 152.44 798.81 149.58 799.5 146.52 800.19 143.47 800.68 140.11 801.07 136.65 801.27 133.01 801.37 129.36 801.37 54.99 753.85 54.99 753.85 130.15 753.85 132.51 753.75 134.68 753.56 136.75 753.26 138.73 753.06 139.62 752.87 140.51 752.67 141.39 752.27 142.28 752.07 143.07 751.68 143.76 751.29 144.55 750.99 145.24 750.5 145.93 750 146.62 749.51 147.11 748.92 147.7 748.32 148.3 747.64 148.69 746.95 149.09 746.25 149.58 745.47 149.87 744.58 150.17 743.69 150.47 742.81 150.67 741.72 150.86 740.74 150.96 739.65 151.06 738.47 151.06 737.38 151.06 736.4 150.96 735.41 150.76 734.53 150.67 733.63 150.47 732.75 150.17 731.97 149.78 731.17 149.48 730.58 149.09 729.9 148.6 729.2 148.11 728.61 147.6 728.01 147.01 727.52 146.43 727.03 145.73 726.64 145.04 726.15 144.25 725.85 143.56 725.45 142.78 725.16 141.88 724.86 141.1 724.57 140.21 724.37 139.32 724.18 138.43 723.88 136.36 723.58 134.39 723.48 132.22 723.48 130.05 723.48 54.99"></polygon><rect class="cls-1" x="820.3" y="54.98" width="48.61" height="126.55"></rect><polygon class="cls-1" points="886.66 54.99 886.66 87.63 946.49 87.63 884.49 143.07 884.49 181.54 1001.41 181.54 1001.41 147.8 939.4 147.8 999.44 93.35 999.44 54.99 886.66 54.99"></polygon><rect class="cls-1" x="167.33" y="14.84" width="67.14" height="22.99"></rect><polygon class="cls-1" points="548.48 193.67 675.08 193.67 675.08 231.06 597.09 231.06 597.09 320.22 548.48 320.22 548.48 193.67"></polygon><polygon class="cls-1" points="536.46 181.54 409.86 181.54 409.86 144.15 487.85 144.15 487.85 54.99 536.46 54.99 536.46 181.54"></polygon><polygon class="cls-1" points="536.46 193.67 409.86 193.67 409.86 231.06 487.85 231.06 487.85 320.22 536.46 320.22 536.46 193.67"></polygon><g><path class="cls-1" d="M645.08,342.03h14.54l23.17,54.82h-16.18l-3.97-9.72h-21l-3.89,9.72h-15.86l23.17-54.82ZM658.3,375.39l-6.07-15.48-6.14,15.48h12.21Z"></path><path class="cls-1" d="M688.78,354.79h14.78v5.91c2.72-3.5,6.61-6.84,12.6-6.84,8.94,0,14.31,5.91,14.31,15.48v27.53h-14.78v-22.78c0-4.59-2.41-7.08-5.91-7.08s-6.22,2.49-6.22,7.08v22.78h-14.78v-42.07Z"></path><path class="cls-1" d="M737.54,384.8v-.16c0-8.71,6.61-13.22,16.49-13.22,3.89,0,7.7.78,10.11,1.63v-.7c0-4.35-2.72-6.84-8.4-6.84-4.43,0-7.85.86-11.59,2.33l-3.03-10.42c4.74-1.94,9.8-3.27,17.03-3.27s12.68,1.79,16.02,5.13c3.19,3.11,4.51,7.46,4.51,13.38v24.18h-14.62v-4.35c-2.88,3.19-6.84,5.29-12.36,5.29-8.01,0-14.15-4.59-14.15-12.99ZM764.29,381.61v-1.94c-1.48-.62-3.58-1.09-5.75-1.09-4.28,0-6.77,2.1-6.77,5.21v.16c0,2.88,2.18,4.59,5.21,4.59,4.28,0,7.31-2.72,7.31-6.92ZM760.56,336.67l13.76,4.43-11.43,9.95h-10.42l8.09-14.39Z"></path><path class="cls-1" d="M788.09,340.09h14.78v56.77h-14.78v-56.77Z"></path><path class="cls-1" d="M812.66,340.09h15.4v10.89h-15.4v-10.89ZM812.97,354.79h14.78v42.07h-14.78v-42.07Z"></path><path class="cls-1" d="M835.45,384.8v-.16c0-8.71,6.61-13.22,16.49-13.22,3.89,0,7.7.78,10.11,1.63v-.7c0-4.35-2.72-6.84-8.4-6.84-4.43,0-7.85.86-11.59,2.33l-3.03-10.42c4.74-1.94,9.8-3.27,17.03-3.27s12.68,1.79,16.02,5.13c3.19,3.11,4.51,7.46,4.51,13.38v24.18h-14.62v-4.35c-2.88,3.19-6.84,5.29-12.36,5.29-8.01,0-14.15-4.59-14.15-12.99ZM862.2,381.61v-1.94c-1.48-.62-3.58-1.09-5.75-1.09-4.28,0-6.77,2.1-6.77,5.21v.16c0,2.88,2.18,4.59,5.21,4.59,4.28,0,7.31-2.72,7.31-6.92Z"></path><path class="cls-1" d="M909.64,342.42h43.55v13.22h-28.46v9.25h25.74v12.52h-25.74v19.44h-15.09v-54.43Z"></path><path class="cls-1" d="M960.73,354.79h14.78v8.48c2.41-5.75,6.3-9.49,13.3-9.18v15.55h-1.24c-7.7,0-12.05,4.43-12.05,14.15v13.06h-14.78v-42.07Z"></path><path class="cls-1" d="M991.52,384.8v-.16c0-8.71,6.61-13.22,16.49-13.22,3.89,0,7.7.78,10.11,1.63v-.7c0-4.35-2.72-6.84-8.4-6.84-4.43,0-7.85.86-11.59,2.33l-3.03-10.42c4.74-1.94,9.8-3.27,17.03-3.27s12.68,1.79,16.02,5.13c3.19,3.11,4.51,7.46,4.51,13.38v24.18h-14.62v-4.35c-2.88,3.19-6.84,5.29-12.36,5.29-8.01,0-14.15-4.59-14.15-12.99ZM1018.27,381.61v-1.94c-1.48-.62-3.58-1.09-5.75-1.09-4.28,0-6.77,2.1-6.77,5.21v.16c0,2.88,2.18,4.59,5.21,4.59,4.28,0,7.31-2.72,7.31-6.92Z"></path><path class="cls-1" d="M1041.76,354.79h14.78v5.91c2.72-3.5,6.61-6.84,12.6-6.84,8.94,0,14.31,5.91,14.31,15.48v27.53h-14.78v-22.78c0-4.59-2.41-7.08-5.91-7.08s-6.22,2.49-6.22,7.08v22.78h-14.78v-42.07Z"></path><path class="cls-1" d="M1090.91,376.02v-.16c0-11.9,9.25-21.93,22.55-21.93,8.63,0,14.39,3.73,17.96,9.41l-10.03,7.46c-2.02-2.8-4.28-4.43-7.85-4.43-4.74,0-8.24,4.2-8.24,9.33v.16c0,5.44,3.42,9.56,8.4,9.56,3.5,0,5.75-1.63,8.09-4.35l9.88,7.15c-3.89,5.75-9.49,9.64-18.74,9.64-12.68,0-22.01-9.95-22.01-21.85Z"></path><path class="cls-1" d="M1135.54,376.02v-.16c0-11.98,9.8-22.01,23.33-22.01s23.17,9.88,23.17,21.85v.16c0,11.98-9.8,22.01-23.33,22.01s-23.17-9.88-23.17-21.85ZM1167.66,376.02v-.16c0-5.13-3.73-9.49-8.94-9.49s-8.79,4.28-8.79,9.33v.16c0,5.13,3.73,9.49,8.94,9.49s8.79-4.28,8.79-9.33Z"></path></g></svg> 